<svg id="Layer_1" data-name="Layer 1" xmlns="http://www.w3.org/2000/svg" viewBox="0 0 372.1 257.51"><defs><style>.cls-1{fill:#ddd;}</style></defs><path class="cls-1" d="M455.68,492.06A128.16,128.16,0,0,0,476,422.58h0A128.76,128.76,0,0,0,347.27,293.83H250.14A128.76,128.76,0,0,0,121.38,422.58h0A128.76,128.76,0,0,0,250.14,551.34h97.13a128.2,128.2,0,0,0,74.66-23.85l71.55,23.85ZM211.82,456.19a30.1,30.1,0,1,1,30.1-30.09A30.1,30.1,0,0,1,211.82,456.19Zm82.94,0a30.1,30.1,0,1,1,30.1-30.09A30.1,30.1,0,0,1,294.76,456.19Zm83.29,0a30.1,30.1,0,1,1,30.1-30.09A30.1,30.1,0,0,1,378.05,456.19Z" transform="translate(-121.38 -293.83)"/></svg>