<svg id="Layer_1" data-name="Layer 1" xmlns="http://www.w3.org/2000/svg" viewBox="0 0 478.87 324.14"><defs><style>.cls-1{fill:#ddd;}</style></defs><path class="cls-1" d="M537.47,238.49H102.85a22.12,22.12,0,0,0-22.12,22.13V540.5a22.12,22.12,0,0,0,22.12,22.13H537.47a22.12,22.12,0,0,0,22.12-22.13V260.62A22.12,22.12,0,0,0,537.47,238.49Zm-14.86,32.06a6.24,6.24,0,0,1-2.29,4.82L324.47,434.88a6.81,6.81,0,0,1-8.62,0L120,275.37a6.24,6.24,0,0,1-2.29-4.82h0a6.22,6.22,0,0,1,10.15-4.82l192.3,156.63,192.3-156.63a6.22,6.22,0,0,1,10.15,4.82Z" transform="translate(-80.73 -238.49)"/></svg>