<svg id="Layer_1" data-name="Layer 1" xmlns="http://www.w3.org/2000/svg" viewBox="0 0 521.57 300.8"><defs><style>.cls-1{fill:#fff;}</style></defs><path class="cls-1" d="M110.14,296.62,44.69,144.84h7.36l59.09,136.67,27.65-64.66-30.84-72h7.17l27.65,65.45,28.45-65.45h5.57l-31,71.81L174,282.1l60.28-137.26h5.37L173.4,296.62l-31.63-72.81Z" transform="translate(-44.69 -142.49)"/><path class="cls-1" d="M363.31,144.84h6.56V294h-6.56v-56.9H261.06V294h-6.57V144.84h6.57v86.53H363.31Z" transform="translate(-44.69 -142.49)"/><path class="cls-1" d="M416.53,273.59Q394,250.31,394,219.18t22.88-53.91q22.88-22.78,54.91-22.78t54.7,22.68q22.68,22.68,22.68,54t-22.48,54.51q-22.49,23.18-53.71,23.17h-3Q439.12,296.86,416.53,273.59Zm126-54q0-29.34-20.79-50.33t-50.13-21q-29.36,0-50.24,21t-20.88,50.33q0,29.34,20.88,50.43t50.14,21.09q29.23,0,50.13-21.09T542.56,219.58Z" transform="translate(-44.69 -142.49)"/><path class="cls-1" d="M100,330.73V335H74.93V440.8H70.08V335H44.69v-4.25Z" transform="translate(-44.69 -142.49)"/><path class="cls-1" d="M114,330.73h6.31q14.24,0,25,10.49t10.79,24.66q0,14.16-11,24.58t-23.62,10.42h-1l37.86,39.92H152l-33.31-34.93V440.8H114Zm4.7,65.89h2.64q11.88,0,21-9.1A29.47,29.47,0,0,0,151.38,366q0-12.48-9.39-21.72T120.57,335h-1.91Z" transform="translate(-44.69 -142.49)"/><path class="cls-1" d="M218.31,328.09l55,112.71H268.2l-20.84-42H188.51L168,440.8h-4.55Zm-.45,10.12-27.44,56.36H245.6Z" transform="translate(-44.69 -142.49)"/><path class="cls-1" d="M311.64,443.29,256.9,330.73h5.28l49.9,102,49.6-102h4.7Z" transform="translate(-44.69 -142.49)"/><path class="cls-1" d="M378.12,330.73H417.6V335H383v59.88h28.92v4.26H383v37.42H417.6v4.26H378.12Z" transform="translate(-44.69 -142.49)"/><path class="cls-1" d="M442.1,330.73V436.54h34v4.26H437.26V330.73Z" transform="translate(-44.69 -142.49)"/><path class="cls-1" d="M525.24,336.6a24.54,24.54,0,0,0-13-3.53A17.87,17.87,0,0,0,500,337.55q-5.07,4.49-5.07,12.25v.74q0,9.24,10.28,16.88a104.33,104.33,0,0,0,9.9,6.38c3.67,2.1,7.34,4.36,11,6.75a81.85,81.85,0,0,1,10,7.63,32.37,32.37,0,0,1,7.34,9.91A29,29,0,0,1,546.3,411v1.47q0,13.95-9.47,22.16t-23.4,8.22q-18.36,0-28.48-15.12v-7.92a33.05,33.05,0,0,0,11.23,13.57q7.41,5.22,18.42,5.21a28,28,0,0,0,19.08-7q8.07-7.05,8.07-18.78v-.89a24.72,24.72,0,0,0-3.82-13.42,33.34,33.34,0,0,0-9.53-10q-5.73-3.87-12.48-8.14t-12.47-7.92a33,33,0,0,1-9.54-9.25A21.07,21.07,0,0,1,490.09,351v-1q0-10.26,6.61-15.7T513,328.82q13.5,0,21.42,10v7.48A25.28,25.28,0,0,0,525.24,336.6Z" transform="translate(-44.69 -142.49)"/><path class="cls-1" d="M536.53,188.86l3.39,9.35c8.79,2.71,13.93,6,13.93,9.49,0,3.32-4.6,6.42-12.52,9h0c-1.31.43-2.7.85-4.18,1.26h0q-2.21.6-4.68,1.17h0c-15,3.42-36.76,5.58-60.88,5.58s-45.83-2.16-60.89-5.58h0q-2.46-.57-4.68-1.17h0c-1.48-.41-2.88-.83-4.18-1.26h0c-7.93-2.62-12.52-5.72-12.52-9,0-3.51,5.13-6.78,13.92-9.49l3.39-9.35c-18.29,4.72-29.73,11.42-29.73,18.84s11.3,14,29.4,18.77l.52.13q4.49,1.16,9.48,2.14l.76.15a279.54,279.54,0,0,0,43.26,4.55h.37c3.59.11,7.24.18,10.94.18q5,0,9.79-.14h0c3.21-.09,6.38-.23,9.49-.4h0c43-2.45,75.4-12.88,75.4-25.39C566.26,200.28,554.82,193.58,536.53,188.86Z" transform="translate(-44.69 -142.49)"/><path class="cls-1" d="M487.89,191.3a2.66,2.66,0,0,0-2.18,4.62s-6,6.64-7.53,9c-.82,1.26-1.12,1.89-2.62,4.53l-3,5.27a2.65,2.65,0,0,0-.38-.05,2.46,2.46,0,0,0-.39-.09l-.9-6c-.42-3-1-6-1.6-9q-.92-4.15-2.1-8.24l-4.1-14.21a2.66,2.66,0,0,0-.33-5.1l-3.22-9.94,1,10.42a2.66,2.66,0,0,0,1.82,4.77l2.18,14.63q.62,4.22,1.52,8.37c.65,3,1.4,5.9,2.27,8.8L470,215c-.07,0-.11.1-.18.14a4.46,4.46,0,0,0-.43.33,4.59,4.59,0,0,0-.37.39c-.05.07-.12.11-.16.18a2.38,2.38,0,0,0-.17.31,2.12,2.12,0,0,0-.11.21,3,3,0,0,0-.22.78,1.55,1.55,0,0,0,0,.31,3.29,3.29,0,0,0,0,.77s0,.08,0,.12a3.31,3.31,0,0,0,.87,1.59h0a3.22,3.22,0,0,0,1.68.9h0a3.21,3.21,0,0,0,1.91-.23h0a3.19,3.19,0,0,0,1.4-1.16s0-.07,0-.1a3,3,0,0,0,.32-.71,2.63,2.63,0,0,0,.09-.3,3.1,3.1,0,0,0,.07-.81,1.79,1.79,0,0,0,0-.23c0-.12,0-.23,0-.35s-.07-.15-.09-.23a5.21,5.21,0,0,0-.2-.5c-.09-.16-.18-.31-.28-.46s-.07-.14-.12-.19l3.71-4.83c1.86-2.39,2.2-2.73,3.18-4.15,1.57-2.36,5.41-10.41,5.41-10.41a2.66,2.66,0,0,0,3.44-3.77l4.93-9.22Zm-27.62-16.71a1.81,1.81,0,1,1,2.15,1.37A1.81,1.81,0,0,1,460.27,174.59Zm11.44,44a.86.86,0,0,1-.32,0,.94.94,0,0,1-.3-.12.81.81,0,0,1,.3-1.47h0a.71.71,0,0,1,.29,0,.77.77,0,0,1,.25.1h0a.8.8,0,0,1,.36.51A.82.82,0,0,1,471.71,218.59Zm17.52-24a1.8,1.8,0,1,1-.49-2.5A1.8,1.8,0,0,1,489.23,194.56Z" transform="translate(-44.69 -142.49)"/><path class="cls-1" d="M415.32,216.44c5,1,10.63,1.83,16.72,2.52a1.33,1.33,0,0,0,.66-1.13v0a1.36,1.36,0,0,0-1.36-1.35Z" transform="translate(-44.69 -142.49)"/><path class="cls-1" d="M406.94,214.55a64.48,64.48,0,0,1,4.83-20,1.25,1.25,0,0,1,.12.08l11.49,4.75a1.37,1.37,0,1,0,1-2.53l-11.48-4.75h-.06a64.75,64.75,0,0,1,12.79-18.21l8.45,8.45a1.37,1.37,0,1,0,1.94-1.94l-8.41-8.4a64.8,64.8,0,0,1,18.55-12l4.41,10.69a1.37,1.37,0,1,0,2.52-1.05L448.74,159a64.8,64.8,0,0,1,21.43-4.1v22.73a1.35,1.35,0,0,0,1.35,1.35h0a1.35,1.35,0,0,0,1.35-1.35V154.89A64.75,64.75,0,0,1,494.37,159L490,169.65a1.37,1.37,0,0,0,.74,1.79,1.35,1.35,0,0,0,1.78-.74L496.91,160a64.68,64.68,0,0,1,18.51,12l-8.4,8.4a1.37,1.37,0,0,0,1.93,1.94l8.45-8.45a64.75,64.75,0,0,1,12.81,18.24l-.06,0-11.49,4.74a1.37,1.37,0,0,0,1,2.53l11.49-4.75s.08,0,.12-.08a64.07,64.07,0,0,1,4.82,20q2.65-.69,5-1.44a69.86,69.86,0,0,0-139.1,0Q404.29,213.86,406.94,214.55Z" transform="translate(-44.69 -142.49)"/><path class="cls-1" d="M510.38,217.79v0A1.35,1.35,0,0,0,511,219c6.09-.69,11.7-1.54,16.73-2.52h-16A1.35,1.35,0,0,0,510.38,217.79Z" transform="translate(-44.69 -142.49)"/><path class="cls-1" d="M534.42,234a20.33,20.33,0,0,1-11.91,18.82,7.14,7.14,0,0,1-3.49.82,2.81,2.81,0,0,0,1.75-3.32,3.15,3.15,0,0,0-3.12-2.21c-1.79.08-3.17,1.57-4.16,3.07s-1.87,3.17-3.43,4.05c-3.16,1.68-7.07-.78-14.66,8l0,.06c-1.62,1.88-4.59-.15-3.61-2.42a30.72,30.72,0,0,1,5.54-7.65c3.36-4.56-1-9.13,4.14-16.3a9.62,9.62,0,0,1,1.54-1.64c-9.83.95-20.4,1.47-31.42,1.47-7.54,0-14.86-.25-21.89-.7a8.77,8.77,0,0,0,3.56,6.4c6.49,4.33,6.93,14.67-.43,16.74s-19.8-2.34-23.6-6.85c-3.08-3.65-6.06-12.4-6.93-19.37a173.17,173.17,0,0,1-20-4.48,69.85,69.85,0,0,0,138.59,0c-2.06.61-4.23,1.19-6.49,1.74C534.38,231.5,534.41,232.77,534.42,234ZM485.5,244.09c3.16,0,7.65,2.56,7.65,5.71s-4.49,5.72-7.65,5.72-9.58-2.56-9.58-5.72S482.35,244.09,485.5,244.09ZM478.2,258a2.28,2.28,0,1,1-2.28,2.27A2.27,2.27,0,0,1,478.2,258Zm-7.05,26.46a64.52,64.52,0,0,1-36.32-11.12c9.94-2.85,20-1,26.87,1.06a27.39,27.39,0,0,0,17.48-.5c9.18-3.38,24.1-6.89,31.64-2C500,279.92,485.64,284.49,471.15,284.49Z" transform="translate(-44.69 -142.49)"/></svg>