<svg id="Layer_1" data-name="Layer 1" xmlns="http://www.w3.org/2000/svg" viewBox="0 0 448.05 365.1"><defs><style>.cls-1{fill:#fff;}</style></defs><path class="cls-1" d="M183.71,505.87q-53.4-55-53.4-128.68t54.11-127.5q54.11-53.87,129.86-53.87t129.38,53.64q53.64,53.62,53.64,127.73T444.13,506.11q-53.17,54.81-127,54.81H310Q237.11,560.92,183.71,505.87ZM481.77,378.14q0-69.4-49.17-119T314,209.46q-69.41,0-118.8,49.64t-49.4,119q0,69.41,49.4,119.26t118.57,49.88q69.15,0,118.56-49.88T481.77,378.14Z" transform="translate(-89.78 -195.82)"/><path class="cls-1" d="M467.52,305.48l8,22.12c20.8,6.42,32.94,14.14,32.94,22.45,0,7.85-10.87,15.17-29.6,21.37h0q-4.65,1.54-9.9,3l-.1,0q-5.24,1.44-11.07,2.77h0c-35.6,8.1-86.93,13.19-144,13.19s-108.39-5.09-144-13.19h0q-5.84-1.33-11.08-2.77l-.09,0q-5.25-1.44-9.89-3h0c-18.74-6.19-29.61-13.52-29.61-21.37,0-8.31,12.14-16,32.94-22.45l8-22.12c-43.26,11.18-70.31,27-70.31,44.57s26.72,33.21,69.53,44.38l1.22.31q10.6,2.73,22.43,5.06l1.79.35c29.61,5.72,64.51,9.53,102.31,10.76l.89,0q12.74.4,25.86.42,11.73,0,23.17-.32h0q11.42-.31,22.46-.95h0c101.81-5.77,178.32-30.46,178.32-60C537.83,332.48,510.78,316.66,467.52,305.48Z" transform="translate(-89.78 -195.82)"/><path class="cls-1" d="M352.47,311.26a6.29,6.29,0,0,0-5.14,10.93s-14.09,15.69-17.82,21.26c-1.94,3-2.65,4.47-6.18,10.71l-7.2,12.47c-.3-.09-.61-.08-.91-.14a9,9,0,0,0-.9-.2l-2.14-14.24q-1.5-10.65-3.79-21.16-2.14-9.83-5-19.49l-9.69-33.62a6.29,6.29,0,0,0-.77-12l-7.61-23.52,2.4,24.65a6.29,6.29,0,0,0,4.3,11.29l5.17,34.6q1.45,10,3.59,19.79,2.29,10.5,5.36,20.82l4,13.84a4.23,4.23,0,0,0-.42.32,7.06,7.06,0,0,0-1,.78,7.66,7.66,0,0,0-.87.93c-.12.16-.29.26-.4.42a7.48,7.48,0,0,0-.39.74c-.09.16-.18.32-.26.49a7.57,7.57,0,0,0-.53,1.84c0,.25-.05.49-.07.74a7.5,7.5,0,0,0,.09,1.83,2.26,2.26,0,0,0,0,.26,7.64,7.64,0,0,0,2.06,3.76h0a7.71,7.71,0,0,0,4,2.14h.07a7.66,7.66,0,0,0,4.51-.53h0a7.73,7.73,0,0,0,3.3-2.75c0-.08.06-.17.11-.24a7.83,7.83,0,0,0,.75-1.67c.07-.24.15-.47.2-.71a7.16,7.16,0,0,0,.18-1.91c0-.19,0-.37-.06-.56a8,8,0,0,0-.1-.82c0-.2-.16-.35-.21-.54a7.92,7.92,0,0,0-1.13-2.28c-.11-.15-.16-.32-.28-.46l8.76-11.42c4.42-5.65,5.23-6.44,7.52-9.82,3.73-5.57,12.81-24.61,12.81-24.61a6.29,6.29,0,0,0,8.14-8.92l11.64-21.81Zm-65.3-39.53a4.26,4.26,0,1,1,5.07,3.26A4.26,4.26,0,0,1,287.17,271.73Zm27,104.06a1.9,1.9,0,0,1-.75,0,2,2,0,0,1-.7-.29,1.92,1.92,0,0,1,.69-3.48h0a1.94,1.94,0,0,1,.68,0,1.77,1.77,0,0,1,.59.23l.08,0a2,2,0,0,1,.84,1.21A1.93,1.93,0,0,1,314.21,375.79ZM355.66,319a4.26,4.26,0,1,1-1.18-5.92A4.28,4.28,0,0,1,355.66,319Z" transform="translate(-89.78 -195.82)"/><path class="cls-1" d="M180.84,370.72C192.74,373,206,375,220.4,376.66A3.14,3.14,0,0,0,222,374v-.07a3.2,3.2,0,0,0-3.2-3.2Z" transform="translate(-89.78 -195.82)"/><path class="cls-1" d="M161,366.26a152.47,152.47,0,0,1,11.43-47.32,3,3,0,0,0,.29.2l27.16,11.23a3.24,3.24,0,1,0,2.47-6l-27.16-11.23c-.05,0-.1,0-.14,0a153.54,153.54,0,0,1,30.25-43.07l20,20a3.23,3.23,0,0,0,4.57-4.57L210,265.59a153.51,153.51,0,0,1,43.86-28.35L264.3,262.5a3.23,3.23,0,1,0,6-2.46l-10.39-25.19a153,153,0,0,1,50.68-9.69V278.9a3.19,3.19,0,0,0,3.2,3.19h.07a3.19,3.19,0,0,0,3.2-3.19V225.16a152.85,152.85,0,0,1,50.76,9.72l-10.41,25.18a3.24,3.24,0,1,0,6,2.47l10.44-25.26a153.36,153.36,0,0,1,43.79,28.32l-19.88,19.88a3.23,3.23,0,0,0,4.57,4.57l20-20a153.9,153.9,0,0,1,30.29,43.16l-.14,0-27.17,11.21a3.23,3.23,0,1,0,2.46,6l27.18-11.22a1.73,1.73,0,0,0,.28-.19,152.29,152.29,0,0,1,11.4,47.24q6.27-1.65,11.71-3.43a165.22,165.22,0,0,0-329,0Q154.75,364.62,161,366.26Z" transform="translate(-89.78 -195.82)"/><path class="cls-1" d="M405.67,373.92V374a3.13,3.13,0,0,0,1.54,2.67c14.4-1.63,27.67-3.63,39.56-5.94H408.86A3.19,3.19,0,0,0,405.67,373.92Z" transform="translate(-89.78 -195.82)"/><path class="cls-1" d="M462.53,412.28c.17,19.06-10.74,36.8-28.17,44.51-3.12,1.38-5.94,2.18-8.25,1.92a6.65,6.65,0,0,0,4.13-7.84,7.45,7.45,0,0,0-7.37-5.24c-4.23.19-7.5,3.73-9.84,7.26s-4.43,7.51-8.11,9.59c-7.47,4-16.74-1.85-34.67,18.88a1.83,1.83,0,0,0-.13.16c-3.82,4.44-10.86-.36-8.53-5.74,2.47-5.68,8.34-13.15,13.11-18.09,7.93-10.78-2.29-21.58,9.77-38.54a22.85,22.85,0,0,1,3.66-3.87c-23.27,2.24-48.26,3.47-74.32,3.47-17.83,0-35.14-.59-51.76-1.66.7,6.07,3.45,11.84,8.4,15.14,15.35,10.25,16.4,34.69-1,39.58s-46.82-5.53-55.8-16.18c-7.29-8.64-14.35-29.35-16.39-45.82a407.92,407.92,0,0,1-47.32-10.59c10.26,81.41,79.69,144.39,163.88,144.39s153.62-63,163.88-144.39q-7.32,2.14-15.35,4.1C462.42,406.34,462.5,409.33,462.53,412.28Zm-115.7,23.83c7.46,0,18.09,6.05,18.09,13.51s-10.63,13.51-18.09,13.51-22.65-6.05-22.65-13.51S339.37,436.11,346.83,436.11Zm-17.28,33a5.38,5.38,0,1,1-5.37,5.38A5.38,5.38,0,0,1,329.55,469.07Zm-16.67,62.59A152.59,152.59,0,0,1,227,505.36c23.5-6.75,47.38-2.44,63.55,2.51a64.84,64.84,0,0,0,41.33-1.18c21.72-8,57-16.3,74.84-4.84C381.19,520.85,347.15,531.66,312.88,531.66Z" transform="translate(-89.78 -195.82)"/></svg>