<svg id="Layer_1" data-name="Layer 1" xmlns="http://www.w3.org/2000/svg" xmlns:xlink="http://www.w3.org/1999/xlink" viewBox="0 0 392.24 319.62"><defs><style>.cls-1{fill:url(#linear-gradient);}.cls-2{fill:url(#linear-gradient-2);}.cls-3{fill:url(#linear-gradient-3);}.cls-4{fill:url(#linear-gradient-4);}.cls-5{fill:url(#linear-gradient-5);}.cls-6{fill:url(#linear-gradient-6);}.cls-7{fill:url(#linear-gradient-7);}</style><linearGradient id="linear-gradient" x1="-479.23" y1="372.07" x2="483.65" y2="372.07" gradientUnits="userSpaceOnUse"><stop offset="0" stop-color="#36003f"/><stop offset="1" stop-color="#60287d"/></linearGradient><linearGradient id="linear-gradient-2" x1="175.23" y1="420.22" x2="454.21" y2="276.6" gradientUnits="userSpaceOnUse"><stop offset="0" stop-color="#36003f"/><stop offset="0.33" stop-color="#60287d"/><stop offset="0.74" stop-color="#004e82"/><stop offset="1" stop-color="#3e80c2"/></linearGradient><linearGradient id="linear-gradient-3" x1="159.19" y1="389.08" x2="438.18" y2="245.45" xlink:href="#linear-gradient-2"/><linearGradient id="linear-gradient-4" x1="162.88" y1="396.25" x2="441.87" y2="252.63" xlink:href="#linear-gradient-2"/><linearGradient id="linear-gradient-5" x1="164.52" y1="399.42" x2="443.5" y2="255.8" xlink:href="#linear-gradient-2"/><linearGradient id="linear-gradient-6" x1="203.42" y1="475" x2="482.41" y2="331.37" xlink:href="#linear-gradient-2"/><linearGradient id="linear-gradient-7" x1="207.11" y1="482.15" x2="486.09" y2="338.53" xlink:href="#linear-gradient-2"/></defs><path class="cls-1" d="M203,483.7Q156.26,435.51,156.26,371t47.36-111.62Q251,212.26,317.3,212.26t113.27,47q46.95,46.95,47,111.82T431,483.9q-46.55,48-111.21,48h-6.18Q249.75,531.88,203,483.7ZM463.93,371.87q0-60.75-43-104.21T317.1,224.2q-60.77,0-104,43.46T169.85,371.87q0,60.75,43.25,104.41t103.79,43.66q60.56,0,103.8-43.66T463.93,371.87Z" transform="translate(-120.77 -212.26)"/><path class="cls-2" d="M451.46,308.26l7,19.37c18.2,5.62,28.83,12.38,28.83,19.65,0,6.87-9.52,13.29-25.92,18.71h0q-4.06,1.35-8.66,2.61l-.09,0q-4.58,1.26-9.69,2.42h0c-31.17,7.09-76.1,11.55-126.06,11.55S222,378.13,190.83,371h0q-5.1-1.17-9.7-2.42l-.07,0q-4.6-1.26-8.67-2.61h0c-16.4-5.42-25.92-11.84-25.92-18.71,0-7.27,10.63-14,28.84-19.65l7-19.37c-37.87,9.79-61.55,23.64-61.55,39s23.39,29.07,60.87,38.85l1.07.28q9.27,2.38,19.64,4.43l1.56.3c25.92,5,56.47,8.34,89.57,9.42l.78,0q11.14.35,22.63.36,10.28,0,20.29-.28h0q10-.29,19.66-.83h0C446,394.78,513,373.17,513,347.28,513,331.9,489.33,318.05,451.46,308.26Z" transform="translate(-120.77 -212.26)"/><path class="cls-3" d="M350.74,313.32a5.51,5.51,0,0,0-4.5,9.57s-12.34,13.73-15.6,18.62c-1.7,2.59-2.32,3.91-5.41,9.37l-6.3,10.91a8.15,8.15,0,0,1-1.59-.3L315.47,349q-1.32-9.31-3.32-18.52-1.87-8.61-4.35-17.06L299.32,284a5.51,5.51,0,0,0-.68-10.55L292,252.87l2.1,21.58a5.51,5.51,0,0,0,3.76,9.89l4.53,30.29q1.28,8.72,3.15,17.32,2,9.19,4.69,18.23l3.48,12.11c-.14.08-.24.2-.37.28a5.89,5.89,0,0,0-.89.69,6.45,6.45,0,0,0-.76.81c-.11.14-.25.23-.35.37a6.61,6.61,0,0,0-.34.64c-.08.15-.16.28-.23.43a6.8,6.8,0,0,0-.47,1.62c0,.21,0,.42-.06.64a7.1,7.1,0,0,0,.08,1.6,1.93,1.93,0,0,1,0,.24,6.79,6.79,0,0,0,1.81,3.29h0a6.74,6.74,0,0,0,3.48,1.86l0,0h0a6.68,6.68,0,0,0,3.95-.47h0a6.72,6.72,0,0,0,2.88-2.4,2.14,2.14,0,0,0,.1-.22,6.87,6.87,0,0,0,.66-1.46c.06-.21.13-.41.18-.62a6.62,6.62,0,0,0,.15-1.67,4.07,4.07,0,0,0,0-.49c0-.24,0-.48-.08-.72s-.14-.31-.19-.47a6.65,6.65,0,0,0-.42-1,6.56,6.56,0,0,0-.57-1c-.1-.13-.14-.28-.24-.4l7.67-10c3.86-4.94,4.57-5.64,6.58-8.59,3.26-4.88,11.21-21.55,11.21-21.55a5.5,5.5,0,0,0,7.12-7.81l10.2-19.09Zm-57.17-34.61a3.73,3.73,0,1,1,4.44,2.86A3.73,3.73,0,0,1,293.57,278.71Zm23.67,91.11a1.63,1.63,0,0,1-.66,0,1.74,1.74,0,0,1-.6-.25,1.68,1.68,0,0,1-.47-2.33,1.7,1.7,0,0,1,1.07-.72h0a1.73,1.73,0,0,1,.6,0,1.65,1.65,0,0,1,.52.2s0,0,.07,0a1.67,1.67,0,0,1,.73,1.06A1.68,1.68,0,0,1,317.24,369.82Zm36.29-49.76a3.73,3.73,0,1,1-1-5.18A3.72,3.72,0,0,1,353.53,320.06Z" transform="translate(-120.77 -212.26)"/><path class="cls-4" d="M200.49,365.38c10.41,2,22,3.77,34.63,5.2a2.75,2.75,0,0,0,1.35-2.34v-.07a2.79,2.79,0,0,0-2.79-2.79Z" transform="translate(-120.77 -212.26)"/><path class="cls-5" d="M183.15,361.47a133.43,133.43,0,0,1,10-41.42c.09.05.16.13.25.17l23.78,9.83a2.83,2.83,0,0,0,2.17-5.23L195.57,315l-.13,0a134.34,134.34,0,0,1,26.49-37.71l17.5,17.5a2.83,2.83,0,0,0,4-4L226,273.34a134.34,134.34,0,0,1,38.4-24.82l9.12,22.12a2.83,2.83,0,0,0,5.24-2.16l-9.1-22.05a134.05,134.05,0,0,1,44.37-8.49V285a2.8,2.8,0,0,0,2.8,2.8h.07a2.79,2.79,0,0,0,2.79-2.8V237.94a133.88,133.88,0,0,1,44.44,8.52l-9.11,22a2.83,2.83,0,1,0,5.23,2.16l9.15-22.11a134.25,134.25,0,0,1,38.33,24.79l-17.41,17.4a2.84,2.84,0,0,0,4,4l17.49-17.5A134.22,134.22,0,0,1,438.37,315a.5.5,0,0,0-.12,0l-23.79,9.82a2.83,2.83,0,1,0,2.16,5.23l23.79-9.81c.09,0,.16-.12.25-.17a133.54,133.54,0,0,1,10,41.35q5.49-1.44,10.25-3a144.64,144.64,0,0,0-288,0Q177.66,360,183.15,361.47Z" transform="translate(-120.77 -212.26)"/><path class="cls-6" d="M397.31,368.17v.07a2.75,2.75,0,0,0,1.35,2.34c12.61-1.43,24.22-3.19,34.63-5.2H400.11A2.79,2.79,0,0,0,397.31,368.17Z" transform="translate(-120.77 -212.26)"/><path class="cls-7" d="M447.09,401.76c.15,16.68-9.4,32.22-24.66,39-2.73,1.21-5.2,1.91-7.22,1.69a5.84,5.84,0,0,0,3.62-6.86,6.52,6.52,0,0,0-6.46-4.59c-3.7.17-6.57,3.26-8.61,6.35s-3.88,6.57-7.11,8.4c-6.53,3.47-14.65-1.63-30.35,16.53l-.11.13c-3.34,3.89-9.51-.31-7.47-5,2.16-5,7.31-11.51,11.48-15.84,6.94-9.43-2-18.89,8.55-33.74a21.14,21.14,0,0,1,3.2-3.38c-20.36,2-42.25,3-65.06,3-15.6,0-30.76-.51-45.31-1.45.61,5.31,3,10.36,7.36,13.26,13.43,9,14.35,30.36-.89,34.64s-41-4.84-48.85-14.16c-6.38-7.56-12.56-25.69-14.35-40.12a356.25,356.25,0,0,1-41.42-9.26,144.62,144.62,0,0,0,286.93,0q-6.41,1.88-13.43,3.58C447,396.56,447.07,399.18,447.09,401.76ZM345.8,422.62c6.54,0,15.84,5.29,15.84,11.83s-9.3,11.83-15.84,11.83S326,441,326,434.45,339.27,422.62,345.8,422.62Zm-15.12,28.86a4.71,4.71,0,1,1-4.71,4.71A4.71,4.71,0,0,1,330.68,451.48Zm-14.6,54.79a133.55,133.55,0,0,1-75.19-23c20.58-5.91,41.49-2.13,55.64,2.2a56.67,56.67,0,0,0,36.18-1c19-7,49.9-14.26,65.52-4.23C375.89,496.81,346.08,506.27,316.08,506.27Z" transform="translate(-120.77 -212.26)"/></svg>